<?xml version="1.0" encoding="UTF-8"?>
<svg xmlns="http://www.w3.org/2000/svg" xmlns:xlink="http://www.w3.org/1999/xlink" viewBox="0 0 1200 400">
  <defs>
    <linearGradient id="linear-gradient" x1="156.22" y1="256.4" x2="160.21" y2="79.2" gradientUnits="userSpaceOnUse">
      <stop offset=".69" stop-color="#fff"/>
      <stop offset=".78" stop-color="#fcfdfe"/>
      <stop offset=".82" stop-color="#f5f9fc"/>
      <stop offset=".86" stop-color="#e8f2f7"/>
      <stop offset=".88" stop-color="#d6e7f2"/>
      <stop offset=".91" stop-color="#bedaea"/>
      <stop offset=".93" stop-color="#a1c9e1"/>
      <stop offset=".95" stop-color="#7eb5d6"/>
      <stop offset=".97" stop-color="#559eca"/>
      <stop offset=".99" stop-color="#2985bc"/>
      <stop offset="1" stop-color="#0571b1"/>
    </linearGradient>
  </defs>
  <g id="Layer_1" data-name="Layer 1">
    <path d="M197.16,240.78c-.23,0-.41-.21-.41-.46l-.2-104.28c0-.25.18-.46.41-.46l46.27-.42c.22,0,.4-.2.41-.45.13-7.83-.54-45.58-56.62-33.07-3.77.84-6.5,2.01-10.03,3.45-.41.17-.35.15-.75.33-1.09.5-7.14,4.03-13.98,5.09h-.06s-4.97,0-4.97,0h-.06c-6.82-1.12-12.35-3.53-13.85-4.26-.58-.28,0,0-.59-.26,0,0-7.23-2.58-11.01-3.42-57.35-12.8-57.53,27.74-57.38,32.13.01.33.02.66.02.99.08,33.79,8.77,53.27,12.49,60.07,2.54,4.63,4.81,9.45,6.59,14.5,1.43,4.04,2.61,8.16,3.54,12.34.84,3.77,1.49,8.13,1.56,9.16.07,1.11,1.71,22.12,1.86,23.22,1.19,9.2,4.5,34.24,25.52,44.57.02,0,.04.02.06.03,2.94,1.42,7.42-.52,6.93-3.76l-.36-5.07c-.02-.99-.1-1.99-.22-2.98-3.32-27.3,7.55-46.25,7.55-46.25,5.24-8.95,10.88-13.8,20.03-13.28.39.02,1.72-.01,2.11.08,1.83.42,9.72-.22,16.94,17.46,3.03,7.41,4.64,15.31,4.99,23.3.39,8.95-.77,21.54-1.45,26.41-.81,5.78,3.66,6.78,8.13,3.49,8.7-6.41,26.37-17.38,28.44-58.59" fill="url(#linear-gradient)"/>
    <g>
      <g>
        <path d="M268.66,242.86h-70.47c-2.68,0-4.86-2.18-4.86-4.86v-99.01c0-2.68,2.18-4.86,4.86-4.86h96.03c4.02,0,7.29,3.27,7.29,7.29v62.03c0,3.21-2.1,6.1-5.11,7.02-15.93,4.85-19.65,18.31-20.44,25.9-.39,3.71-3.53,6.5-7.3,6.5ZM198.19,136.56c-1.34,0-2.43,1.09-2.43,2.43v99.01c0,1.34,1.09,2.43,2.43,2.43h70.47c2.52,0,4.62-1.86,4.88-4.33.86-8.19,4.88-22.71,22.15-27.97,2-.61,3.39-2.53,3.39-4.69v-62.03c0-2.68-2.18-4.86-4.86-4.86h-96.03Z" fill="#fff"/>
        <path d="M268.66,243.79h-70.47c-3.2,0-5.8-2.6-5.8-5.8v-99.01c0-3.2,2.6-5.79,5.8-5.79h96.03c4.54,0,8.23,3.69,8.23,8.23v62.03c0,3.62-2.37,6.87-5.77,7.91-15.42,4.69-19.01,17.74-19.79,25.1-.44,4.18-3.98,7.34-8.23,7.34ZM198.19,135.06c-2.17,0-3.93,1.76-3.93,3.93v99.01c0,2.17,1.76,3.93,3.93,3.93h70.47c3.29,0,6.03-2.44,6.37-5.67.82-7.82,4.65-21.68,21.1-26.69,2.62-.8,4.45-3.31,4.45-6.12v-62.03c0-3.51-2.85-6.36-6.36-6.36h-96.03ZM268.66,241.36h-70.47c-1.85,0-3.36-1.51-3.36-3.36v-99.01c0-1.85,1.51-3.36,3.36-3.36h96.03c3.2,0,5.8,2.6,5.8,5.79v62.03c0,2.56-1.67,4.86-4.05,5.58-16.76,5.1-20.66,19.21-21.5,27.17-.31,2.94-2.81,5.16-5.81,5.16ZM198.19,137.49c-.83,0-1.5.67-1.5,1.5v99.01c0,.83.67,1.5,1.5,1.5h70.47c2.05,0,3.75-1.5,3.96-3.49.88-8.42,5.02-23.35,22.81-28.76,1.61-.49,2.73-2.05,2.73-3.8v-62.03c0-2.17-1.76-3.93-3.93-3.93h-96.03Z" fill="#fff"/>
      </g>
      <rect x="206.48" y="145.67" width="10.94" height="10.94" fill="#fff"/>
      <rect x="229.35" y="145.67" width="10.94" height="10.94" fill="#fff"/>
      <rect x="252.34" y="145.67" width="10.94" height="10.94" fill="#fff"/>
      <rect x="275.1" y="145.67" width="10.94" height="10.94" fill="#fff"/>
      <rect x="206.48" y="220.69" width="10.94" height="10.94" fill="#fff"/>
      <rect x="229.35" y="220.69" width="10.94" height="10.94" fill="#fff"/>
      <rect x="252.23" y="220.69" width="10.94" height="10.94" fill="#fff"/>
    </g>
  </g>
  <g id="Layer_2" data-name="Layer 2">
    <g>
      <path d="M435.44,156.01h-9.17v25.01c4.64-.44,9.17-.95,13.48-1.52l.57,10.16c-20.38,3.55-43.94,4.32-61.83,4.32l-1.36-11.17,11.67-.13v-26.66h-8.95v-10.92h55.61v10.92ZM460.81,231.3h-55.95v9.01h59.23v11.17h-71.69v-30.47h55.95v-8.25h-56.17v-11.04h68.63v29.58ZM414.26,181.79v-25.77h-13.36v26.41c4.42-.13,8.89-.32,13.36-.63ZM460.81,196.89h-12.57v-59.16h12.57v59.16Z" fill="#fff"/>
      <path d="M581.25,207.3h-93.54v-11.17h93.54v11.17ZM569.7,169.6h-57.64v8.25h59.68v10.79h-72.14v-29.33h57.53v-8.12h-57.87v-11.04h70.44v29.45ZM570.04,251.1h-70.1v-35.55h70.1v35.55ZM512.28,239.68h45.3v-12.95h-45.3v12.95Z" fill="#fff"/>
      <path d="M665.57,218.09l-6.91,10.79c-11.78-5.52-20.55-17.01-25.25-30.85-4.59,14.66-13.42,26.91-25.37,32.75l-6.79-10.92c16.31-8.12,25.71-27.42,25.71-45.7v-5.97h-22.54v-11.3h22.54v-16.76h12.46v16.76h22.08v11.3h-21.97v5.97c0,17.52,9.51,36.18,26.05,43.93ZM685.28,252.5h-12.57v-114.77h12.57v114.77Z" fill="#fff"/>
      <path d="M744,216.32c10.42-.44,21.12-1.27,30.92-2.67l.68,10.54c-21.18,3.81-44.62,4.32-62.63,4.19l-1.25-11.3c6.06-.06,12.8-.13,19.82-.38v-34.28h12.46v33.9ZM769.82,157.79c0,10.28,0,24.63-2.83,44.43l-12.46-1.14c2.43-17.39,2.72-30.21,2.83-40.12h-40.2v-11.3h52.66v8.12ZM792.92,184.45h14.84v11.93h-14.84v56.11h-12.68v-114.77h12.68v46.72Z" fill="#fff"/>
      <path d="M832.28,232.19l-6.57-11.3c26.78-14.28,39.24-33.71,41.45-59.79h-36.24v-11.17h49.04c0,34.15-11.78,63.22-47.68,82.27ZM910.53,252.5h-12.68v-114.77h12.68v114.77Z" fill="#fff"/>
      <path d="M1030.53,201.21h-92.87v-11.43h36.01v-20.82h12.46v20.82h44.39v11.43ZM1019.88,231.04c-.11,13.33-14.16,21.33-36.35,21.33s-36.24-8-36.24-21.33,14.16-21.46,36.24-21.58c22.2.13,36.24,8,36.35,21.58ZM1019.2,152.71c0,9.01,0,18.66-2.83,30.47l-12.46-1.27c2.55-11.17,2.72-19.23,2.72-27.55h-58.32v-11.17h70.9v9.52ZM959.97,231.04c-.11,6.73,8.83,10.41,23.56,10.41s23.78-3.68,23.9-10.41c-.11-6.98-9.06-10.92-23.9-10.92s-23.67,3.94-23.56,10.92Z" fill="#fff"/>
      <path d="M1143.38,238.28h-93.54v-11.43h40.09v-26.53h12.46v26.53h41v11.43ZM1139.76,191.43l-5.44,11.68c-17.33-3.68-31.48-14.79-38.28-29.83-6.79,14.98-20.84,26.28-38.05,29.83l-5.44-11.68c21.4-3.81,36.69-21.07,36.81-38.34v-8.38h13.36v8.38c0,17.39,15.52,34.53,37.03,38.34Z" fill="#fff"/>
    </g>
  </g>
</svg>